<svg id="Layer_1" data-name="Layer 1" xmlns="http://www.w3.org/2000/svg" xmlns:xlink="http://www.w3.org/1999/xlink" viewBox="0 0 1919.99 975.01"><defs><style>.cls-1{fill:url(#linear-gradient);}.cls-2{opacity:0.3;fill:url(#linear-gradient-2);}.cls-2,.cls-3,.cls-4{isolation:isolate;}.cls-3,.cls-4{fill:#fff;}.cls-3{opacity:0.2;}.cls-4{opacity:0.1;}</style><linearGradient id="linear-gradient" x1="251.93" y1="1061.64" x2="1252.43" y2="273.12" gradientTransform="matrix(1, 0, 0, -1, -0.76, 975)" gradientUnits="userSpaceOnUse"><stop offset="0" stop-color="#66a6ff"/><stop offset="1" stop-color="#89f7fe"/></linearGradient><linearGradient id="linear-gradient-2" x1="1038.95" y1="452.25" x2="1645.56" y2="452.25" gradientTransform="matrix(1, 0, 0, -1, -0.76, 975)" gradientUnits="userSpaceOnUse"><stop offset="0" stop-color="#fff" stop-opacity="0.6"/><stop offset="1" stop-color="#89f7fe" stop-opacity="0.3"/></linearGradient></defs><title>Asset 3</title><path class="cls-1" d="M0,0C.07,107.44,0,823.8,0,942.82c55.91-26,115.51-36.87,178.71-39.48,73.2-3,133.85,41.53,204.4,37.54,26.55-1.51,51.13-12.43,76.2-20.5,70-22.5,148.44-22.8,218.62-.82,31.64,9.91,63.27,24.41,96.62,21.72,21.41-1.73,41.21-10.45,61.29-17.38,79.13-27.33,169.44-27.21,248.48.33,22.1,7.7,44,17.6,67.73,18.16,27.46.64,53-11.31,78.71-20.12,65.85-22.6,139.88-25.22,207.49-7.35,33.48,8.85,66.09,22.67,101,23.58,67.35,1.75,131.27-32.28,199.86-34.33a349.2,349.2,0,0,1,54.38,2.57,419.28,419.28,0,0,1,125,36.09V0H852.24"/><path class="cls-2" d="M1370.1,819.71,1184.6,776.5a117.79,117.79,0,0,1-86-80.5l-55.32-182.25A117.79,117.79,0,0,1,1070,399l130.22-139a117.76,117.76,0,0,1,112.7-34.21L1498.39,269a117.79,117.79,0,0,1,86,80.5l55.33,182.25A117.81,117.81,0,0,1,1613,646.46l-130.18,139A117.76,117.76,0,0,1,1370.1,819.71Z"/><path class="cls-3" d="M1.49,879.09A602.26,602.26,0,0,1,120.4,860.62c73.51-4.1,104.74,7.19,189.85,11.28,9.21.45,103.19,4.61,203.84-8.2C635.71,848.21,633,825,713.93,816.51c127.75-13.41,166.85,41,387.7,65.65,57.28,6.39,157.25,17,279.78,6.16,129.16-11.46,159.43-35.81,255.8-38,65.36-1.45,161.5,7.3,282.78,58.47V975H1.49Z"/><path class="cls-4" d="M1.49,895.89c22-62.14,73.06-59.89,101.5-66.45,85.25-19.67,142.28,59.22,258,46.84,83.4-8.92,74-65.08,162-82.61,131.24-26.14,216.24,86,380,64.41,65.26-8.61,53-26.58,128-42,166.61-34.28,225.24,54.89,412,46.21,145.33-6.75,187.64-64.37,368-57.41a826.64,826.64,0,0,1,107.5,11.2L1920,975H1.49Z"/></svg>