<svg id="Layer_1" data-name="Layer 1" xmlns="http://www.w3.org/2000/svg" viewBox="0 0 501 501"><defs><style>.cls-1,.cls-3{fill:#fff;}.cls-1{stroke:#231f20;stroke-miterlimit:10;opacity:0;}.cls-2{fill:#464655;}.cls-4{fill:#bec8dc;}.cls-5{fill:#afbbd0;}.cls-6{fill:#96a5b9;}.cls-7{fill:#e4eaf6;}.cls-8{fill:#ff6469;}</style></defs><title>computer</title><rect class="cls-1" x="0.5" y="0.5" width="500" height="500"/><path class="cls-2" d="M463.35,52.4H36.65A15.81,15.81,0,0,0,20.84,68.21V321.07H479.16V68.21A15.81,15.81,0,0,0,463.35,52.4Zm-7.9,245H44.55V76.11h410.9Z" transform="translate(0.5 4.5)"/><path class="cls-3" d="M202.59,174.88a4,4,0,0,1,3.95,4h11.85V167h-15.8a3.95,3.95,0,0,1,0-7.9h15.8V107.72H147.27v71.11h51.37A4,4,0,0,1,202.59,174.88Z" transform="translate(0.5 4.5)"/><path class="cls-3" d="M44.55,297.36h410.9V76.11H44.55Zm173.84-19.75h-15.8a4,4,0,0,1,0-7.91h15.8a4,4,0,0,1,0,7.91Zm-15.8-39.51a4,4,0,0,1,3.95,4v15.8a3.95,3.95,0,1,1-7.9,0v-15.8A3.94,3.94,0,0,1,202.59,238.1Zm-4-11.86v-15.8a4,4,0,0,1,7.9,0v15.8a4,4,0,1,1-7.9,0ZM250,277.61H234.2a4,4,0,1,1,0-7.91H250a4,4,0,0,1,0,7.91Zm67.16-19.76a3.95,3.95,0,0,1-7.9,0v-15.8a4,4,0,0,1,7.9,0Zm0-31.61a4,4,0,1,1-7.9,0v-15.8a4,4,0,0,1,7.9,0Zm0-31.6a4,4,0,0,1-7.9,0V178.83a3.95,3.95,0,0,1,7.9,0Zm35.57,7.9V99.81a7.9,7.9,0,0,1,7.9-7.9h71.11a7.91,7.91,0,0,1,7.91,7.9V273.66a7.91,7.91,0,0,1-7.91,7.9H360.63a7.9,7.9,0,0,1-7.9-7.9Zm-55.32-43.46h15.8a4,4,0,1,1,0,7.9h-15.8a3.95,3.95,0,0,1,0-7.9Zm0,110.63h15.8a3.95,3.95,0,1,1,0,7.9h-15.8a3.95,3.95,0,0,1,0-7.9ZM265.8,159.08h15.81a3.95,3.95,0,0,1,0,7.9H265.8a3.95,3.95,0,0,1,0-7.9Zm0,110.63h15.81a3.95,3.95,0,0,1,0,7.9H265.8a3.95,3.95,0,0,1,0-7.9ZM131.47,99.81a7.9,7.9,0,0,1,7.9-7.9h86.92a7.91,7.91,0,0,1,7.91,7.9v59.27H250a3.95,3.95,0,0,1,0,7.9H234.2v19.76a8,8,0,0,1-.4,2.45l20.74,18.58a3.17,3.17,0,0,1-.84,5.26l-7.86,3.45,7,16a4,4,0,1,1-7.24,3.17l-7-16-7.86,3.45a3.18,3.18,0,0,1-4.45-3l.34-25.54-.34,0H206.54a4,4,0,1,1-7.9,0H139.37a7.9,7.9,0,0,1-7.9-7.9V99.81Zm-71.12,0a7.91,7.91,0,0,1,7.91-7.9H92a7.9,7.9,0,0,1,7.9,7.9V273.66a7.9,7.9,0,0,1-7.9,7.9H68.26a7.91,7.91,0,0,1-7.91-7.9Z" transform="translate(0.5 4.5)"/><path class="cls-4" d="M20.84,352.68a15.81,15.81,0,0,0,15.81,15.8h426.7a15.8,15.8,0,0,0,15.8-15.8V321.07H20.84ZM250,332.92a11.86,11.86,0,1,1-11.85,11.85A11.85,11.85,0,0,1,250,332.92Z" transform="translate(0.5 4.5)"/><polygon class="cls-5" points="180.37 428.29 320.63 428.29 315.69 388.78 185.31 388.78 180.37 428.29"/><path class="cls-4" d="M178.88,423.79a7.91,7.91,0,0,0,0,15.81H321.12a7.91,7.91,0,0,0,0-15.81H178.88Z" transform="translate(0.5 4.5)"/><polygon class="cls-6" points="185.31 388.78 315.69 388.78 313.72 372.98 187.28 372.98 185.31 388.78"/><circle class="cls-6" cx="250.5" cy="349.27" r="11.85"/><path class="cls-4" d="M68.26,281.56H92a7.9,7.9,0,0,0,7.9-7.9V99.81a7.9,7.9,0,0,0-7.9-7.9H68.26a7.91,7.91,0,0,0-7.91,7.9V273.66A7.91,7.91,0,0,0,68.26,281.56Zm7.9-173.84h7.9a7.9,7.9,0,0,1,0,15.8h-7.9a7.9,7.9,0,1,1,0-15.8Zm0,23.7h7.9a7.91,7.91,0,0,1,0,15.81h-7.9a7.91,7.91,0,0,1,0-15.81Zm0,23.71h7.9a7.9,7.9,0,0,1,0,15.8h-7.9a7.9,7.9,0,1,1,0-15.8Zm0,23.7h7.9a7.91,7.91,0,0,1,0,15.81h-7.9a7.91,7.91,0,0,1,0-15.81Zm0,23.71h7.9a7.9,7.9,0,0,1,0,15.8h-7.9a7.9,7.9,0,1,1,0-15.8Zm-7.9,39.51a7.89,7.89,0,0,1,7.9-7.9h7.9a7.9,7.9,0,0,1,7.9,7.9v15.8a7.9,7.9,0,0,1-7.9,7.9h-7.9a7.89,7.89,0,0,1-7.9-7.9Z" transform="translate(0.5 4.5)"/><path class="cls-7" d="M76.16,123.52h7.9a7.91,7.91,0,0,0,0-15.81h-7.9a7.91,7.91,0,0,0,0,15.81Z" transform="translate(0.5 4.5)"/><path class="cls-6" d="M76.16,147.23h7.9a7.91,7.91,0,0,0,0-15.81h-7.9a7.91,7.91,0,0,0,0,15.81Z" transform="translate(0.5 4.5)"/><path class="cls-7" d="M76.16,170.93h7.9a7.9,7.9,0,0,0,0-15.8h-7.9a7.9,7.9,0,1,0,0,15.8Z" transform="translate(0.5 4.5)"/><path class="cls-7" d="M76.16,194.64h7.9a7.91,7.91,0,0,0,0-15.81h-7.9a7.91,7.91,0,0,0,0,15.81Z" transform="translate(0.5 4.5)"/><path class="cls-7" d="M76.16,218.34h7.9a7.9,7.9,0,0,0,0-15.8h-7.9a7.9,7.9,0,1,0,0,15.8Z" transform="translate(0.5 4.5)"/><path class="cls-6" d="M76.16,265.75h7.9a7.9,7.9,0,0,0,7.9-7.9v-15.8a7.9,7.9,0,0,0-7.9-7.9h-7.9a7.89,7.89,0,0,0-7.9,7.9v15.8A7.89,7.89,0,0,0,76.16,265.75Z" transform="translate(0.5 4.5)"/><path class="cls-4" d="M439.65,99.81a7.91,7.91,0,0,0-7.91-7.9H360.63a7.91,7.91,0,0,0-7.91,7.9v47.42h86.93V99.81Zm-11.86,39.51H364.58a3.95,3.95,0,1,1,0-7.9h63.21a3.95,3.95,0,0,1,0,7.9Zm0-15.8H364.58a4,4,0,1,1,0-7.9h63.21a4,4,0,1,1,0,7.9Zm0-15.8H364.58a4,4,0,0,1,0-7.91h63.21a4,4,0,1,1,0,7.91Z" transform="translate(0.5 4.5)"/><path class="cls-4" d="M360.63,281.56h71.11a7.91,7.91,0,0,0,7.91-7.9V202.54H352.73v71.12A7.9,7.9,0,0,0,360.63,281.56Zm35.56-71.12h31.6a4,4,0,0,1,0,7.9h-31.6a4,4,0,1,1,0-7.9Zm0,15.8h31.6a4,4,0,0,1,0,7.91h-31.6a4,4,0,1,1,0-7.91Zm0,15.81h31.6a3.95,3.95,0,0,1,0,7.9h-31.6a4,4,0,1,1,0-7.9Zm0,15.8h31.6a3.95,3.95,0,0,1,0,7.9h-31.6a4,4,0,1,1,0-7.9Zm-15.81-47.41h0a4,4,0,0,1,0,7.9h0a4,4,0,1,1,0-7.9Zm0,15.8h0a4,4,0,0,1,0,7.91h0a4,4,0,0,1,0-7.91Zm0,15.81h0a3.95,3.95,0,0,1,0,7.9h0a3.95,3.95,0,0,1,0-7.9Zm0,15.8h0a3.95,3.95,0,1,1,0,7.9h0a3.95,3.95,0,1,1,0-7.9Zm-15.8-47.41h0a4,4,0,0,1,0,7.9h0a4,4,0,1,1,0-7.9Zm0,15.8h0a4,4,0,0,1,0,7.91h0a4,4,0,0,1,0-7.91Zm0,15.81h0a3.95,3.95,0,0,1,0,7.9h0a3.95,3.95,0,0,1,0-7.9Zm0,15.8h0a3.95,3.95,0,0,1,0,7.9h0a3.95,3.95,0,0,1,0-7.9Z" transform="translate(0.5 4.5)"/><path class="cls-6" d="M439.65,147.23H352.73v55.31h86.92Zm-67.17,47.41h-7.9a3.95,3.95,0,0,1,0-7.9h7.9a3.95,3.95,0,1,1,0,7.9Zm0-15.81h-7.9a4,4,0,1,1,0-7.9h7.9a4,4,0,0,1,0,7.9Zm0-15.8h-7.9a3.95,3.95,0,1,1,0-7.9h7.9a3.95,3.95,0,0,1,0,7.9Zm55.31,31.61H388.28a3.95,3.95,0,1,1,0-7.9h39.51a3.95,3.95,0,0,1,0,7.9Zm0-15.81H388.28a4,4,0,1,1,0-7.9h39.51a4,4,0,0,1,0,7.9Zm0-15.8H388.28a3.95,3.95,0,1,1,0-7.9h39.51a3.95,3.95,0,0,1,0,7.9Z" transform="translate(0.5 4.5)"/><path class="cls-6" d="M427.79,99.81H380.38a4,4,0,0,1,0,7.91h47.41a4,4,0,0,0,0-7.91Z" transform="translate(0.5 4.5)"/><path class="cls-6" d="M368.53,103.76a4,4,0,0,1,4-4h-7.9a4,4,0,0,0,0,7.91h7.9A4,4,0,0,1,368.53,103.76Z" transform="translate(0.5 4.5)"/><path class="cls-6" d="M427.79,131.42h-31.6a3.95,3.95,0,0,1,0,7.9h31.6a4,4,0,0,0,0-7.9Z" transform="translate(0.5 4.5)"/><path class="cls-6" d="M384.33,135.37a4,4,0,0,1,3.95-4h-23.7a4,4,0,1,0,0,7.9h23.7A4,4,0,0,1,384.33,135.37Z" transform="translate(0.5 4.5)"/><path class="cls-4" d="M427.79,155.13H388.28a4,4,0,1,0,0,7.9h39.51a4,4,0,0,0,0-7.9Z" transform="translate(0.5 4.5)"/><path class="cls-6" d="M408,119.57a4,4,0,0,1,3.95-3.95H364.58a3.95,3.95,0,1,0,0,7.9H412A4,4,0,0,1,408,119.57Z" transform="translate(0.5 4.5)"/><path class="cls-6" d="M427.79,115.62h-7.9a4,4,0,0,1,0,7.9h7.9a3.95,3.95,0,0,0,0-7.9Z" transform="translate(0.5 4.5)"/><path class="cls-7" d="M384.33,103.76a4,4,0,0,0-3.95-4h-7.9a4,4,0,0,0,0,7.91h7.9A4,4,0,0,0,384.33,103.76Z" transform="translate(0.5 4.5)"/><path class="cls-7" d="M400.14,135.37a4,4,0,0,0-3.95-4h-7.91a4,4,0,1,0,0,7.9h7.91A4,4,0,0,0,400.14,135.37Z" transform="translate(0.5 4.5)"/><path class="cls-7" d="M372.48,155.13h-7.9a4,4,0,1,0,0,7.9h7.9a4,4,0,0,0,0-7.9Z" transform="translate(0.5 4.5)"/><path class="cls-4" d="M427.79,170.93H388.28a3.95,3.95,0,1,0,0,7.9h39.51a3.95,3.95,0,0,0,0-7.9Z" transform="translate(0.5 4.5)"/><path class="cls-7" d="M372.48,170.93h-7.9a3.95,3.95,0,1,0,0,7.9h7.9a3.95,3.95,0,0,0,0-7.9Z" transform="translate(0.5 4.5)"/><path class="cls-4" d="M427.79,186.74H388.28a3.95,3.95,0,1,0,0,7.9h39.51a3.95,3.95,0,0,0,0-7.9Z" transform="translate(0.5 4.5)"/><path class="cls-7" d="M372.48,186.74h-7.9a3.95,3.95,0,0,0,0,7.9h7.9a3.95,3.95,0,1,0,0-7.9Z" transform="translate(0.5 4.5)"/><path class="cls-7" d="M364.58,234.15h0a4,4,0,0,0,0-7.91h0a4,4,0,0,0,0,7.91Z" transform="translate(0.5 4.5)"/><path class="cls-7" d="M364.58,218.34h0a3.95,3.95,0,0,0,0-7.9h0a3.95,3.95,0,1,0,0,7.9Z" transform="translate(0.5 4.5)"/><path class="cls-7" d="M364.58,265.75h0a3.95,3.95,0,0,0,0-7.9h0a3.95,3.95,0,0,0,0,7.9Z" transform="translate(0.5 4.5)"/><path class="cls-7" d="M364.58,250h0a3.95,3.95,0,0,0,0-7.9h0a3.95,3.95,0,0,0,0,7.9Z" transform="translate(0.5 4.5)"/><path class="cls-6" d="M380.38,234.15h0a4,4,0,0,0,0-7.91h0a4,4,0,0,0,0,7.91Z" transform="translate(0.5 4.5)"/><path class="cls-6" d="M380.38,218.34h0a3.95,3.95,0,0,0,0-7.9h0a3.95,3.95,0,1,0,0,7.9Z" transform="translate(0.5 4.5)"/><path class="cls-6" d="M380.38,265.75h0a3.95,3.95,0,1,0,0-7.9h0a3.95,3.95,0,1,0,0,7.9Z" transform="translate(0.5 4.5)"/><path class="cls-6" d="M380.38,250h0a3.95,3.95,0,0,0,0-7.9h0a3.95,3.95,0,0,0,0,7.9Z" transform="translate(0.5 4.5)"/><path class="cls-6" d="M396.19,234.15h31.6a4,4,0,0,0,0-7.91h-31.6a4,4,0,1,0,0,7.91Z" transform="translate(0.5 4.5)"/><path class="cls-6" d="M396.19,218.34h31.6a3.95,3.95,0,0,0,0-7.9h-31.6a4,4,0,1,0,0,7.9Z" transform="translate(0.5 4.5)"/><path class="cls-6" d="M396.19,265.75h31.6a3.95,3.95,0,0,0,0-7.9h-31.6a4,4,0,1,0,0,7.9Z" transform="translate(0.5 4.5)"/><path class="cls-6" d="M396.19,250h31.6a3.95,3.95,0,0,0,0-7.9h-31.6a4,4,0,1,0,0,7.9Z" transform="translate(0.5 4.5)"/><path class="cls-7" d="M423.84,119.57a4,4,0,0,0-3.95-3.95H412a3.95,3.95,0,1,0,0,7.9h7.9A4,4,0,0,0,423.84,119.57Z" transform="translate(0.5 4.5)"/><path class="cls-8" d="M139.37,194.64h59.27V178.83H147.27V107.72h71.12v51.36a4,4,0,1,1,0,7.9v11.85H206.54v15.81h19.75l.34,0,.06-4.75a3.17,3.17,0,0,1,5.29-2.32l1.82,1.64a7.72,7.72,0,0,0,.4-2.45V167a3.95,3.95,0,0,1,0-7.9V99.81a7.91,7.91,0,0,0-7.91-7.9H139.37a7.9,7.9,0,0,0-7.9,7.9v86.93A7.9,7.9,0,0,0,139.37,194.64Z" transform="translate(0.5 4.5)"/><path class="cls-6" d="M202.59,230.2a4,4,0,0,0,3.95-4v-15.8a3.95,3.95,0,0,0-7.9,0v15.8A4,4,0,0,0,202.59,230.2Z" transform="translate(0.5 4.5)"/><path class="cls-6" d="M297.41,277.61h15.8a4,4,0,0,0,0-7.91h-15.8a4,4,0,0,0,0,7.91Z" transform="translate(0.5 4.5)"/><path class="cls-6" d="M313.21,238.1a4,4,0,0,0-3.95,4v15.8a4,4,0,0,0,7.91,0v-15.8A4,4,0,0,0,313.21,238.1Z" transform="translate(0.5 4.5)"/><path class="cls-6" d="M297.41,167h15.8a3.95,3.95,0,1,0,0-7.9h-15.8a4,4,0,0,0,0,7.9Z" transform="translate(0.5 4.5)"/><path class="cls-6" d="M313.21,174.88a4,4,0,0,0-3.95,4v15.81a4,4,0,0,0,7.91,0V178.83A4,4,0,0,0,313.21,174.88Z" transform="translate(0.5 4.5)"/><path class="cls-6" d="M250,269.71H234.2a4,4,0,1,0,0,7.9H250a4,4,0,0,0,0-7.9Z" transform="translate(0.5 4.5)"/><path class="cls-6" d="M202.59,174.88a4,4,0,0,0-4,4v15.81a3.95,3.95,0,1,0,7.9,0V178.83A4,4,0,0,0,202.59,174.88Z" transform="translate(0.5 4.5)"/><path class="cls-6" d="M218.39,269.71h-15.8a3.95,3.95,0,0,0,0,7.9h15.8a4,4,0,0,0,0-7.9Z" transform="translate(0.5 4.5)"/><path class="cls-6" d="M198.64,257.85a4,4,0,1,0,7.9,0v-15.8a4,4,0,1,0-7.9,0Z" transform="translate(0.5 4.5)"/><path class="cls-6" d="M313.21,206.49a4,4,0,0,0-3.95,3.95v15.8a4,4,0,1,0,7.91,0v-15.8A4,4,0,0,0,313.21,206.49Z" transform="translate(0.5 4.5)"/><path class="cls-6" d="M265.8,167h15.81a3.95,3.95,0,0,0,0-7.9H265.8a3.95,3.95,0,0,0,0,7.9Z" transform="translate(0.5 4.5)"/><path class="cls-6" d="M198.64,163a4,4,0,0,0,4,3.95h15.8a3.95,3.95,0,1,0,0-7.9h-15.8A4,4,0,0,0,198.64,163Z" transform="translate(0.5 4.5)"/><path class="cls-6" d="M265.8,277.61h15.81a4,4,0,0,0,0-7.91H265.8a4,4,0,0,0,0,7.91Z" transform="translate(0.5 4.5)"/><path class="cls-6" d="M230.24,163a4,4,0,0,0,4,3.95H250a4,4,0,0,0,0-7.9H234.2A4,4,0,0,0,230.24,163Z" transform="translate(0.5 4.5)"/><path class="cls-2" d="M226.69,189.87l-.06,4.75-.34,25.54a3.18,3.18,0,0,0,4.45,3l7.86-3.45,7,16a4,4,0,0,0,7.24-3.17l-7-16L253.7,213a3.17,3.17,0,0,0,.84-5.27L233.8,189.19,232,187.55A3.17,3.17,0,0,0,226.69,189.87Z" transform="translate(0.5 4.5)"/></svg>