<svg id="Layer_1" data-name="Layer 1" xmlns="http://www.w3.org/2000/svg" viewBox="0 0 501 501"><defs><style>.cls-1,.cls-2{fill:#fff;}.cls-1{stroke:#231f20;stroke-miterlimit:10;opacity:0;}.cls-3{fill:#e6f0f4;}.cls-4{fill:#bcd4dd;}.cls-5{fill:#95bcc4;}.cls-6{fill:#114a70;}.cls-7{fill:#00233f;}.cls-8{fill:#42b78a;}.cls-9{fill:#0dd396;}</style></defs><title>phone</title><rect class="cls-1" x="0.5" y="0.5" width="500" height="500"/><path class="cls-2" d="M373,444.25c0,12.3-8.68,18.81-21,18.81H148c-12.3,0-21-6.51-21-18.81V47.75c0-12.3,8.68-18.81,21-18.81H352c12.3,0,21,6.51,21,18.81Z" transform="translate(0.5 4.5)"/><path class="cls-3" d="M148.71,28.94H352c12.3,0,21,6.51,21,18.81V443.52c0,12.3-8.68,18.82-21,18.82H148.71" transform="translate(0.5 4.5)"/><rect class="cls-4" x="127.5" y="69.62" width="246" height="340.06"/><polyline class="cls-5" points="373.5 409.68 373.5 69.62 127.5 69.62"/><rect class="cls-6" x="141.97" y="69.62" width="217.06" height="340.06"/><polyline class="cls-7" points="141.97 69.62 359.03 69.62 359.03 409.68"/><path class="cls-8" d="M287.62,259c-21.7,0-43.41-10.85-55-31.83-11.58-20.26-10.13-44.86,1.44-63.67l-20.26-34.73C184.88,159.9,177.65,207.65,200.08,246a100.44,100.44,0,0,0,107.8,48.48Z" transform="translate(0.5 4.5)"/><path class="cls-9" d="M255.79,251.06a59.2,59.2,0,0,1-23.15-23.15c-5.79-10.13-8-21-8-31.83l-26.05-45.59a101,101,0,0,0,1.45,96.23c17.36,30.39,48.47,48.48,81.76,50.65Z" transform="translate(0.5 4.5)"/><circle class="cls-7" cx="157.89" cy="49.36" r="3.62"/><path class="cls-4" d="M320.91,47c0,1.45-1.45,3.62-2.9,3.62H182c-1.45,0-2.9-2.17-2.9-3.62h0c0-1.45,1.45-3.62,2.9-3.62H318c1.45,0,2.9,2.17,2.9,3.62Z" transform="translate(0.5 4.5)"/><path class="cls-4" d="M320.91,445c0,1.45-1.45,3.62-2.9,3.62H182c-1.45,0-2.9-2.17-2.9-3.62h0c0-1.45,1.45-3.62,2.9-3.62H318c1.45,0,2.9,2.17,2.9,3.62Z" transform="translate(0.5 4.5)"/><path class="cls-4" d="M320.91,430.5c0,1.45-1.45,3.62-2.9,3.62H182c-1.45,0-2.9-2.17-2.9-3.62h0c0-1.45,1.45-3.62,2.9-3.62H318c1.45,0,2.9,2.17,2.9,3.62Z" transform="translate(0.5 4.5)"/><circle class="cls-2" cx="253.39" cy="374.95" r="9.41"/><rect class="cls-2" x="314.17" y="367.71" width="13.75" height="13.75"/><polygon class="cls-2" points="173.08 380.74 183.21 363.37 193.34 380.74 173.08 380.74"/></svg>