<svg id="Layer_1" data-name="Layer 1" xmlns="http://www.w3.org/2000/svg" viewBox="0 0 501 501"><defs><style>.cls-1{fill:#fff;stroke:#231f20;stroke-miterlimit:10;opacity:0;}.cls-2{fill:#ff633e;}.cls-3{fill:#f7502f;}.cls-4{fill:#e03c2f;}.cls-5{fill:#cc251d;}.cls-6{fill:#aa1713;}.cls-7{fill:#fcf1d4;}.cls-8{fill:#f2d17e;}.cls-9{fill:#275d68;}.cls-10{fill:#204c5b;}.cls-11{fill:#527a84;}.cls-12{fill:#426972;}</style></defs><title>shoes</title><rect class="cls-1" x="0.5" y="0.5" width="500" height="500"/><path class="cls-2" d="M257.61,228.65l-57.09-26s-24.5-12.25-41.47,0S97.79,253,57.27,208.52c0,0-35.11-35.56-35.11,21.46v79.46H290.84a332.9,332.9,0,0,0,40.62-.32h0c0-20.67,2.45-34.73,5.57-44.3h0l-57.06-26" transform="translate(0.5 4.5)"/><path class="cls-3" d="M42.41,333.2V230c0-15.23,2.5-23.85,6.17-28.31C38.19,195.19,22.16,191.46,22.16,230V333.2A24.74,24.74,0,0,0,46.9,357.94H67.14A24.74,24.74,0,0,1,42.41,333.2Z" transform="translate(0.5 4.5)"/><path class="cls-4" d="M202.21,165.7c-31.81-15.55-28.65,32.78-28.65,32.78,14.09-1.77,27.95,5.16,27.95,5.16L308.3,252.26,338,265.79v0c5.58-17.08,13.35-19.79,13.35-19.79S234,181.25,202.21,165.7Z" transform="translate(0.5 4.5)"/><path class="cls-5" d="M349.82,258.73l-142.48-74.1s-15.88-7.94-32-5.9c0,0,0-.06,0-.17a73.41,73.41,0,0,0-1.75,19.93c14.09-1.78,27.95,5.15,27.95,5.15L308.3,252.26,338,265.79v0c3.15-9.63,20.92-.59,23.68-3.17Z" transform="translate(0.5 4.5)"/><path class="cls-6" d="M219.17,192.88a7.38,7.38,0,0,1-6.33-11.19L223.44,164a7.39,7.39,0,0,1,12.67,7.6l-10.6,17.67A7.37,7.37,0,0,1,219.17,192.88Z" transform="translate(0.5 4.5)"/><path class="cls-6" d="M241.72,205a7.39,7.39,0,0,1-6.33-11.19L246,176.13a7.39,7.39,0,0,1,12.67,7.6l-10.61,17.68A7.39,7.39,0,0,1,241.72,205Z" transform="translate(0.5 4.5)"/><path class="cls-6" d="M264.27,217.1a7.39,7.39,0,0,1-6.33-11.19l10.61-17.67a7.39,7.39,0,0,1,12.67,7.6l-10.61,17.68A7.39,7.39,0,0,1,264.27,217.1Z" transform="translate(0.5 4.5)"/><path class="cls-6" d="M286.83,229.21A7.38,7.38,0,0,1,280.5,218l10.6-17.68A7.39,7.39,0,1,1,303.77,208l-10.6,17.67A7.41,7.41,0,0,1,286.83,229.21Z" transform="translate(0.5 4.5)"/><path class="cls-6" d="M309.38,241.32a7.38,7.38,0,0,1-6.33-11.18l10.6-17.67a7.39,7.39,0,1,1,12.67,7.6l-10.6,17.67A7.38,7.38,0,0,1,309.38,241.32Z" transform="translate(0.5 4.5)"/><path class="cls-7" d="M330.56,291.39c-25.22,0-51-8.61-76-17-38.95-13-75.74-25.29-109.65-7.48-59.58,31.28-87.61,9.46-88.77,8.52l9.57-11.4-.1-.08c.21.16,22.36,16.1,72.21-10.08,39.67-20.83,81.31-6.92,121.58,6.53C285.94,269.3,311,277.67,335,276.5a7.39,7.39,0,1,1,.75,14.76C334,291.35,332.3,291.39,330.56,291.39Z" transform="translate(0.5 4.5)"/><path class="cls-7" d="M433.86,279a24.52,24.52,0,0,1,9.53-7.21h0l-93-26.69s-18.91,6.54-18.91,64.06h0C373.15,306.64,418.88,297.5,433.86,279Z" transform="translate(0.5 4.5)"/><path class="cls-8" d="M365.06,249.28l-14.69-4.22s-18.91,6.54-18.91,64.06c6.59-.39,13.28-.95,19.94-1.69C351.64,271.07,359.55,255.63,365.06,249.28Z" transform="translate(0.5 4.5)"/><path class="cls-4" d="M46.9,309.44H87.41C87,260.72,22.16,233,22.16,233v76.49Z" transform="translate(0.5 4.5)"/><path class="cls-5" d="M42.41,295.7V244.12A149.94,149.94,0,0,0,22.16,233v76.49H52.87C43.07,309.44,42.44,297.91,42.41,295.7Z" transform="translate(0.5 4.5)"/><path class="cls-9" d="M112.13,357.94H290.29c1.88.08,7.4.28,15.45.28A489.08,489.08,0,0,0,361,355.13c54.34-6.34,91.82-21.84,111.4-46.07A24.74,24.74,0,0,0,433.86,278c-20,24.79-95,32.77-141.8,30.52-.41,0-.81,0-1.22,0H22.16V333.2A24.74,24.74,0,0,0,46.9,357.94H89.14" transform="translate(0.5 4.5)"/><path class="cls-10" d="M469.37,274.89a24.63,24.63,0,0,1-5.22,11.87Q453,300.52,434.27,310.5c-20.12,11-46.94,18.56-80.22,22.52A469.47,469.47,0,0,1,300,336.11H296.6c-6.05-.05-10.21-.2-11.77-.27H46.4a24.65,24.65,0,0,1-3-.19H38.71a24.65,24.65,0,0,1-16.55-6.36v3.92A24.74,24.74,0,0,0,46.9,357.94H290.29c1.88.08,7.4.28,15.45.28A489.08,489.08,0,0,0,361,355.13c54.34-6.34,91.82-21.84,111.4-46.07A24.74,24.74,0,0,0,469.37,274.89Z" transform="translate(0.5 4.5)"/><path class="cls-11" d="M468.65,274.27a24.73,24.73,0,0,0-34.79,3.7c-15,18.55-60.71,27.68-102.4,30.16,0,0-31.27,9.21-29.15,50.08h3.43A489.08,489.08,0,0,0,361,355.13c54.34-6.34,91.82-21.84,111.4-46.07A24.75,24.75,0,0,0,468.65,274.27Z" transform="translate(0.5 4.5)"/><path class="cls-12" d="M468.65,274.27l-.24-.18A24.85,24.85,0,0,1,463.18,287C444,311.19,407.29,326.68,354.05,333a466.17,466.17,0,0,1-49.13,3.07,60.52,60.52,0,0,0-2.61,22.12h3.43A489,489,0,0,0,361,355.13c54.35-6.34,91.82-21.84,111.4-46.07A24.75,24.75,0,0,0,468.65,274.27Z" transform="translate(0.5 4.5)"/></svg>